<svg width="30" height="30" viewBox="0 0 30 30" fill="none" xmlns="http://www.w3.org/2000/svg">
<path d="M25.0001 10L15.0001 16.25L5.00012 10V7.5L15.0001 13.75L25.0001 7.5M25.0001 5H5.00012C3.61262 5 2.50012 6.1125 2.50012 7.5V22.5C2.50012 23.163 2.76351 23.7989 3.23235 24.2678C3.7012 24.7366 4.33708 25 5.00012 25H25.0001C25.6632 25 26.299 24.7366 26.7679 24.2678C27.2367 23.7989 27.5001 23.163 27.5001 22.5V7.5C27.5001 6.83696 27.2367 6.20107 26.7679 5.73223C26.299 5.26339 25.6632 5 25.0001 5Z" fill="white"/>
</svg>
