<svg width="24" height="24" viewBox="0 0 24 24" fill="none" xmlns="http://www.w3.org/2000/svg">
<path d="M12.4 11.4C11.6044 11.4 10.8413 11.0839 10.2787 10.5213C9.71607 9.95871 9.4 9.19565 9.4 8.4C9.4 7.60435 9.71607 6.84129 10.2787 6.27868C10.8413 5.71607 11.6044 5.4 12.4 5.4C13.1956 5.4 13.9587 5.71607 14.5213 6.27868C15.0839 6.84129 15.4 7.60435 15.4 8.4C15.4 8.79397 15.3224 9.18407 15.1716 9.54805C15.0209 9.91203 14.7999 10.2427 14.5213 10.5213C14.2427 10.7999 13.912 11.0209 13.548 11.1716C13.1841 11.3224 12.794 11.4 12.4 11.4ZM12.4 0C10.1722 0 8.03561 0.884997 6.4603 2.4603C4.885 4.03561 4 6.17218 4 8.4C4 14.7 12.4 24 12.4 24C12.4 24 20.8 14.7 20.8 8.4C20.8 6.17218 19.915 4.03561 18.3397 2.4603C16.7644 0.884997 14.6278 0 12.4 0Z" fill="white"/>
</svg>
