<svg width="30" height="30" viewBox="0 0 30 30" fill="none" xmlns="http://www.w3.org/2000/svg">
<path d="M8.27512 13.4875C10.0751 17.025 12.9751 19.9125 16.5126 21.725L19.2626 18.975C19.6001 18.6375 20.1001 18.525 20.5376 18.675C21.9376 19.1375 23.4501 19.3875 25.0001 19.3875C25.6876 19.3875 26.2501 19.95 26.2501 20.6375V25C26.2501 25.6875 25.6876 26.25 25.0001 26.25C13.2626 26.25 3.75012 16.7375 3.75012 5C3.75012 4.3125 4.31262 3.75 5.00012 3.75H9.37512C10.0626 3.75 10.6251 4.3125 10.6251 5C10.6251 6.5625 10.8751 8.0625 11.3376 9.4625C11.4751 9.9 11.3751 10.3875 11.0251 10.7375L8.27512 13.4875Z" fill="white"/>
</svg>
