<svg width="52" height="52" viewBox="0 0 52 52" fill="none" xmlns="http://www.w3.org/2000/svg">
<path fill-rule="evenodd" clip-rule="evenodd" d="M15.6586 24.3136C15.2216 24.329 14.8077 24.5134 14.504 24.828C14.2003 25.1426 14.0306 25.5628 14.0306 26C14.0306 26.4373 14.2003 26.8575 14.504 27.172C14.8077 27.4866 15.2216 27.6711 15.6586 27.6865L24.3136 27.6865L24.3136 36.3415C24.3056 36.568 24.3433 36.7937 24.4244 37.0053C24.5056 37.2169 24.6285 37.41 24.7859 37.573C24.9433 37.7361 25.1319 37.8657 25.3405 37.9543C25.5491 38.0429 25.7734 38.0885 26 38.0885C26.2266 38.0885 26.4509 38.0429 26.6595 37.9543C26.8681 37.8657 27.0567 37.7361 27.2141 37.573C27.3715 37.41 27.4945 37.2169 27.5756 37.0053C27.6568 36.7937 27.6945 36.568 27.6865 36.3415V27.6865L36.3415 27.6865C36.5679 27.6945 36.7937 27.6568 37.0053 27.5756C37.2169 27.4945 37.4099 27.3715 37.573 27.2141C37.736 27.0568 37.8657 26.8681 37.9543 26.6595C38.0428 26.451 38.0885 26.2267 38.0885 26C38.0885 25.7734 38.0428 25.5491 37.9543 25.3405C37.8657 25.1319 37.736 24.9433 37.573 24.7859C37.4099 24.6285 37.2169 24.5056 37.0053 24.4245C36.7937 24.3433 36.5679 24.3056 36.3415 24.3136L27.6865 24.3136L27.6865 15.6586C27.671 15.2216 27.4866 14.8077 27.172 14.504C26.8574 14.2003 26.4373 14.0306 26 14.0306C25.5628 14.0306 25.1426 14.2004 24.828 14.504C24.5134 14.8077 24.329 15.2216 24.3136 15.6586L24.3136 24.3136L15.6586 24.3136Z" fill="white"/>
</svg>
