<svg width="30" height="30" viewBox="0 0 30 30" fill="none" xmlns="http://www.w3.org/2000/svg">
<path d="M15.0001 2.5C8.10012 2.5 2.50012 8.1 2.50012 15C2.50012 21.9 8.10012 27.5 15.0001 27.5C21.9001 27.5 27.5001 21.9 27.5001 15C27.5001 8.1 21.9001 2.5 15.0001 2.5ZM20.8001 11C20.6126 12.975 19.8001 17.775 19.3876 19.9875C19.2126 20.925 18.8626 21.2375 18.5376 21.275C17.8126 21.3375 17.2626 20.8 16.5626 20.3375C15.4626 19.6125 14.8376 19.1625 13.7751 18.4625C12.5376 17.65 13.3376 17.2 14.0501 16.475C14.2376 16.2875 17.4376 13.375 17.5001 13.1125C17.5088 13.0727 17.5076 13.0315 17.4968 12.9923C17.4859 12.953 17.4656 12.9171 17.4376 12.8875C17.3626 12.825 17.2626 12.85 17.1751 12.8625C17.0626 12.8875 15.3126 14.05 11.9001 16.35C11.4001 16.6875 10.9501 16.8625 10.5501 16.85C10.1001 16.8375 9.25012 16.6 8.61262 16.3875C7.82512 16.1375 7.21262 16 7.26262 15.5625C7.28762 15.3375 7.60012 15.1125 8.18762 14.875C11.8376 13.2875 14.2626 12.2375 15.4751 11.7375C18.9501 10.2875 19.6626 10.0375 20.1376 10.0375C20.2376 10.0375 20.4751 10.0625 20.6251 10.1875C20.7501 10.2875 20.7876 10.425 20.8001 10.525C20.7876 10.6 20.8126 10.825 20.8001 11Z" fill="white"/>
</svg>
