<svg width="30" height="30" viewBox="0 0 30 30" fill="none" xmlns="http://www.w3.org/2000/svg">
<path d="M18.8414 2.5H11.1714C4.16637 2.5 2.50012 4.16625 2.50012 11.1588V18.8288C2.50012 25.8325 4.15387 27.5 11.1589 27.5H18.8289C25.8326 27.5 27.5001 25.8463 27.5001 18.8412V11.1713C27.5001 4.16625 25.8464 2.5 18.8414 2.5ZM22.6826 20.3375H20.8589C20.1689 20.3375 19.9614 19.7787 18.7239 18.5413C17.6439 17.5 17.1876 17.37 16.9139 17.37C16.5364 17.37 16.4326 17.4738 16.4326 17.995V19.635C16.4326 20.0788 16.2889 20.3387 15.1301 20.3387C14.0056 20.2632 12.915 19.9215 11.9484 19.3419C10.9817 18.7623 10.1666 17.9613 9.57012 17.005C8.15408 15.2425 7.1688 13.1739 6.69262 10.9637C6.69262 10.69 6.79637 10.4425 7.31762 10.4425H9.14012C9.60887 10.4425 9.77762 10.6512 9.96137 11.1325C10.8464 13.7375 12.3564 16.0025 12.9689 16.0025C13.2039 16.0025 13.3064 15.8988 13.3064 15.3125V12.63C13.2289 11.4062 12.5789 11.3025 12.5789 10.86C12.5872 10.7433 12.6407 10.6344 12.728 10.5565C12.8153 10.4785 12.9295 10.4377 13.0464 10.4425H15.9114C16.3026 10.4425 16.4326 10.6375 16.4326 11.1063V14.7262C16.4326 15.1175 16.6014 15.2475 16.7189 15.2475C16.9539 15.2475 17.1351 15.1175 17.5651 14.6875C18.4887 13.5612 19.2433 12.3063 19.8051 10.9625C19.8626 10.8011 19.9712 10.6629 20.1145 10.569C20.2578 10.4751 20.4279 10.4307 20.5989 10.4425H22.4226C22.9689 10.4425 23.0851 10.7163 22.9689 11.1063C22.3057 12.5918 21.4852 14.0019 20.5214 15.3125C20.3251 15.6125 20.2464 15.7688 20.5214 16.12C20.7026 16.3938 21.3414 16.9275 21.7714 17.435C22.3963 18.0583 22.9152 18.7795 23.3076 19.57C23.4639 20.0775 23.2026 20.3375 22.6826 20.3375Z" fill="white"/>
</svg>
